<svg xmlns="http://www.w3.org/2000/svg" width="256" height="256" viewBox="0 0 100 100"><rect width="100" height="100" rx="20" fill="#4a4a4a"></rect><path fill="#fff" d="M47.52 52.09L47.52 52.09Q48.19 53.37 48.81 54.74Q49.43 56.11 50 57.55L50 57.55Q50.57 56.08 51.21 54.69Q51.84 53.30 52.51 51.99L52.51 51.99L65.04 27.34Q65.38 26.70 65.73 26.35Q66.08 26.00 66.52 25.83Q66.95 25.66 67.50 25.63Q68.06 25.60 68.79 25.60L68.79 25.60L77.44 25.60L77.44 74.40L67.45 74.40L67.45 46.33Q67.45 44.29 67.65 41.91L67.65 41.91L54.72 67.00Q54.12 68.17 53.10 68.78Q52.08 69.38 50.77 69.38L50.77 69.38L49.23 69.38Q47.92 69.38 46.90 68.78Q45.88 68.17 45.28 67.00L45.28 67.00L32.28 41.88Q32.41 43.05 32.48 44.20Q32.55 45.36 32.55 46.33L32.55 46.33L32.55 74.40L22.56 74.40L22.56 25.60L31.21 25.60Q31.94 25.60 32.50 25.63Q33.05 25.66 33.48 25.83Q33.92 26.00 34.27 26.35Q34.62 26.70 34.96 27.34L34.96 27.34L47.52 52.09Z"></path></svg>